<svg width="49" height="49" viewBox="0 0 49 49" fill="none" xmlns="http://www.w3.org/2000/svg">
<path d="M12.1787 6.40271C10.7936 6.77366 9.53067 7.50274 8.51677 8.51665C7.50287 9.53055 6.77378 10.7935 6.40283 12.1786M36.8216 6.40271C38.2067 6.77366 39.4697 7.50274 40.4836 8.51665C41.4975 9.53055 42.2265 10.7935 42.5975 12.1786" stroke="black" stroke-width="2" stroke-linecap="round"/>
<path fill-rule="evenodd" clip-rule="evenodd" d="M24.5003 40.8334C28.8322 40.8334 32.9866 39.1126 36.0497 36.0495C39.1128 32.9864 40.8337 28.8319 40.8337 24.5001C40.8337 20.1682 39.1128 16.0138 36.0497 12.9507C32.9866 9.88758 28.8322 8.16675 24.5003 8.16675C20.1685 8.16675 16.014 9.88758 12.9509 12.9507C9.88782 16.0138 8.16699 20.1682 8.16699 24.5001C8.16699 28.8319 9.88782 32.9864 12.9509 36.0495C16.014 39.1126 20.1685 40.8334 24.5003 40.8334ZM26.542 16.3334C26.542 15.7919 26.3269 15.2726 25.944 14.8897C25.5611 14.5069 25.0418 14.2917 24.5003 14.2917C23.9588 14.2917 23.4395 14.5069 23.0566 14.8897C22.6738 15.2726 22.4587 15.7919 22.4587 16.3334V23.9897C22.4587 25.3984 23.602 26.5417 25.0107 26.5417H30.6253C31.1668 26.5417 31.6861 26.3266 32.069 25.9438C32.4519 25.5609 32.667 25.0416 32.667 24.5001C32.667 23.9586 32.4519 23.4393 32.069 23.0564C31.6861 22.6735 31.1668 22.4584 30.6253 22.4584H26.542V16.3334Z" fill="black"/>
</svg>
