<svg width="1512" height="1199" viewBox="0 0 1512 1199" fill="none" xmlns="http://www.w3.org/2000/svg">
<g opacity="0.17">
<path d="M947.466 559.674C962.714 512.492 1009.5 496.41 1044.5 505.933C1067.23 513.533 1085.9 519.775 1130.54 500.923C1160.07 488.454 1184.17 443.85 1243.22 423.293C1302.27 402.736 1341.75 489.857 1394.45 527.08C1447.15 564.303 1498.71 580.595 1544.94 602.585C1591.17 624.576 1564.74 694.159 1507.87 700.195C1450.99 706.231 1429.28 745.805 1346.84 786.863C1264.41 827.922 1190.48 826.077 1120.61 746.082C1050.74 666.087 928.406 618.651 947.466 559.674Z" stroke="url(#paint0_linear_2484_61)" stroke-width="2"/>
<path d="M893.621 545.639C912.926 486.215 970.497 465.49 1013.29 477.052C1041.07 486.339 1063.88 493.966 1118.87 469.787C1155.23 453.794 1185.36 397.508 1258.03 371.024C1330.71 344.54 1378 453.499 1442.14 499.646C1506.28 545.793 1569.3 565.669 1625.7 592.761C1682.11 619.853 1648.81 707.534 1578.99 715.758C1509.17 723.982 1482.03 773.924 1380.42 826.418C1278.82 878.912 1188.18 877.432 1103.54 777.767C1018.89 678.101 869.491 619.917 893.621 545.639Z" stroke="url(#paint1_linear_2484_61)" stroke-width="2"/>
<path d="M1022 585.35C1033.01 551.285 1066.83 539.689 1092.14 546.58C1108.59 552.077 1122.09 556.591 1154.36 542.996C1175.71 534.003 1193.12 501.803 1235.81 486.981C1278.5 472.16 1307.1 535.087 1345.22 561.987C1383.34 588.887 1420.64 600.672 1454.08 616.57C1487.52 632.468 1468.44 682.705 1427.31 687.042C1386.19 691.378 1370.5 719.947 1310.91 749.564C1251.32 779.181 1197.85 777.819 1147.29 720.026C1096.73 662.233 1008.25 627.931 1022 585.35Z" stroke="url(#paint2_linear_2484_61)" stroke-width="2"/>
<path d="M1084.62 599.902C1092.41 575.782 1116.37 567.574 1134.3 572.455C1145.95 576.348 1155.51 579.546 1178.37 569.922C1193.49 563.556 1205.82 540.756 1236.06 530.264C1266.29 519.772 1286.55 564.333 1313.55 583.384C1340.56 602.435 1366.98 610.783 1390.67 622.043C1414.35 633.303 1400.84 668.874 1371.71 671.942C1342.58 675.009 1331.48 695.238 1289.27 716.205C1247.06 737.172 1209.19 736.204 1173.38 695.277C1137.56 654.349 1074.88 630.053 1084.62 599.902Z" stroke="url(#paint3_linear_2484_61)" stroke-width="2"/>
<path d="M1136.07 610.831C1141.34 594.542 1157.39 588.955 1169.38 592.21C1177.16 594.813 1183.56 596.951 1198.88 590.41C1209.01 586.084 1217.31 570.677 1237.57 563.535C1257.84 556.394 1271.29 586.416 1289.31 599.212C1307.34 612.009 1325 617.586 1340.83 625.134C1356.66 632.681 1347.53 656.707 1328.03 658.837C1308.53 660.967 1301.04 674.637 1272.75 688.871C1244.45 703.104 1219.11 702.529 1195.24 674.992C1171.37 647.454 1129.48 631.193 1136.07 610.831Z" stroke="url(#paint4_linear_2484_61)" stroke-width="2"/>
<path d="M1185.49 624.625C1188.58 615.051 1198.12 611.803 1205.27 613.75C1209.91 615.302 1213.72 616.576 1222.82 612.766C1228.84 610.245 1233.74 601.198 1245.77 597.047C1257.81 592.895 1265.91 610.599 1276.67 618.176C1287.44 625.753 1297.97 629.081 1307.41 633.563C1316.85 638.045 1311.49 652.163 1299.89 653.367C1288.28 654.571 1283.87 662.597 1267.07 670.902C1250.27 679.207 1235.19 678.805 1220.9 662.537C1206.61 646.269 1181.63 636.592 1185.49 624.625Z" stroke="url(#paint5_linear_2484_61)" stroke-width="2"/>
</g>
<g opacity="0.17">
<path d="M427.917 163.51C450.884 189.142 442.213 222.326 422.47 239.537C408.775 250.217 397.529 258.987 391.41 291.891C387.362 313.655 405.231 343.582 394.444 385.558C383.658 427.535 314.412 419.968 270.611 437.798C226.81 455.627 196.33 480.186 164.463 499.594C132.596 519.003 100.289 478.883 119.144 443.315C137.998 407.746 122.276 381 129.732 318.035C137.188 255.07 167.657 212.259 244.576 199.445C321.495 186.631 399.208 131.469 427.917 163.51Z" stroke="url(#paint6_linear_2484_61)" stroke-width="2"/>
<path d="M457.913 136.814C486.799 169.156 476.702 210.323 452.612 231.396C435.878 244.445 422.136 255.162 415.19 296.028C410.596 323.058 433.258 360.654 420.711 412.733C408.165 464.812 322.389 454.123 268.56 475.526C214.73 496.929 177.502 526.956 138.46 550.545C99.4185 574.133 58.7089 523.578 81.3537 479.627C103.998 435.676 84.0509 402.08 92.0821 323.802C100.113 245.524 136.985 192.765 231.864 178.214C326.744 163.662 421.806 96.3867 457.913 136.814Z" stroke="url(#paint7_linear_2484_61)" stroke-width="2"/>
<path d="M382.553 198.257C399.136 216.761 392.847 240.741 378.566 253.188C368.661 260.913 360.527 267.256 356.082 291.032C353.143 306.759 366.038 328.369 358.215 358.703C350.391 389.037 300.346 383.614 268.676 396.523C237.006 409.432 214.96 427.195 191.915 441.237C168.869 455.279 145.544 426.314 159.195 400.604C172.846 374.895 161.5 355.581 166.93 310.086C172.359 264.59 194.41 233.64 250.014 224.334C305.618 215.028 361.823 175.126 382.553 198.257Z" stroke="url(#paint8_linear_2484_61)" stroke-width="2"/>
<path d="M348.757 229.928C360.5 243.03 356.042 260.013 345.926 268.83C338.91 274.301 333.149 278.795 329.998 295.633C327.914 306.77 337.044 322.073 331.5 343.555C325.955 365.038 290.512 361.204 268.081 370.35C245.649 379.495 230.033 392.077 213.71 402.024C197.386 411.972 180.871 391.462 190.542 373.253C200.213 355.045 192.18 341.369 196.031 309.149C199.883 276.93 215.504 255.009 254.885 248.412C294.267 241.815 334.079 213.55 348.757 229.928Z" stroke="url(#paint9_linear_2484_61)" stroke-width="2"/>
<path d="M321.624 256.31C329.55 265.164 326.617 276.574 319.859 282.472C315.169 286.129 311.317 289.133 309.261 300.45C307.901 307.936 314.082 318.261 310.434 332.694C306.787 347.128 282.987 344.43 267.964 350.508C252.941 356.585 242.503 364.997 231.583 371.635C220.662 378.272 209.506 364.419 215.934 352.202C222.362 339.985 216.923 330.757 219.397 309.095C221.87 287.432 232.278 272.737 258.686 268.431C285.094 264.125 311.716 245.243 321.624 256.31Z" stroke="url(#paint10_linear_2484_61)" stroke-width="2"/>
<path d="M293.529 280.495C298.191 285.694 296.404 292.449 292.372 295.961C289.576 298.141 287.28 299.932 286.013 306.628C285.175 311.057 288.795 317.132 286.572 325.676C284.349 334.22 270.25 332.723 261.318 336.376C252.385 340.029 246.162 345.043 239.659 349.009C233.157 352.976 226.602 344.836 230.464 337.591C234.327 330.345 231.142 324.915 232.7 312.105C234.258 299.294 240.491 290.569 256.165 287.916C271.84 285.263 287.703 273.996 293.529 280.495Z" stroke="url(#paint11_linear_2484_61)" stroke-width="2"/>
</g>
<g opacity="0.17">
<path d="M284.115 711.913C286.691 686.705 306.966 671.53 324.207 670.59C335.542 670.663 344.85 670.723 363.861 654.55C376.435 643.852 383.39 618.488 408.957 599.209C434.524 579.93 461.316 615.769 489.475 625.409C517.634 635.05 543.252 634.758 566.93 638.064C590.607 641.369 584.968 679.169 559.019 691.088C533.07 703.008 526.746 725.563 492.243 758.448C457.741 791.332 423.078 802.144 382.798 774.558C342.518 746.972 280.894 743.422 284.115 711.913Z" stroke="url(#paint12_linear_2484_61)" stroke-width="2"/>
<path d="M257.65 713.656C260.942 681.893 285.803 662.766 306.876 661.578C320.726 661.667 332.1 661.741 355.422 641.356C370.849 627.873 379.491 595.911 410.843 571.613C442.194 547.314 474.729 592.466 509.083 604.607C543.437 616.748 574.743 616.373 603.657 620.533C632.571 624.692 625.466 672.324 593.689 687.349C561.913 702.374 554.057 730.797 511.709 772.241C469.361 813.685 426.943 827.318 377.88 792.568C328.816 757.819 253.535 753.36 257.65 713.656Z" stroke="url(#paint13_linear_2484_61)" stroke-width="2"/>
<path d="M321.35 712.519C323.209 694.319 337.87 683.364 350.34 682.685C358.538 682.738 365.271 682.782 379.018 671.105C388.111 663.381 393.136 645.069 411.624 631.151C430.113 617.232 449.499 643.107 469.867 650.067C490.236 657.028 508.765 656.817 525.892 659.204C543.018 661.591 538.947 688.881 520.181 697.486C501.415 706.092 496.844 722.376 471.896 746.117C446.947 769.859 421.878 777.664 392.738 757.748C363.599 737.831 319.026 735.267 321.35 712.519Z" stroke="url(#paint14_linear_2484_61)" stroke-width="2"/>
<path d="M351.957 709.637C353.273 696.75 363.658 688.993 372.491 688.513C378.298 688.55 383.067 688.581 392.804 680.313C399.244 674.844 402.803 661.878 415.899 652.022C428.994 642.167 442.726 660.488 457.155 665.417C471.583 670.345 484.708 670.196 496.839 671.886C508.97 673.576 506.087 692.9 492.795 698.993C479.503 705.086 476.266 716.617 458.595 733.427C440.924 750.238 423.167 755.765 402.526 741.663C381.885 727.56 350.312 725.745 351.957 709.637Z" stroke="url(#paint15_linear_2484_61)" stroke-width="2"/>
<path d="M377.004 706.773C377.897 698.069 384.847 692.829 390.752 692.504C394.633 692.529 397.821 692.55 404.339 686.965C408.65 683.271 411.042 674.513 419.806 667.856C428.57 661.199 437.73 673.573 447.37 676.901C457.009 680.229 465.783 680.128 473.89 681.269C481.998 682.41 480.051 695.462 471.159 699.578C462.267 703.694 460.092 711.482 448.262 722.837C436.432 734.193 424.556 737.926 410.773 728.402C396.99 718.878 375.888 717.653 377.004 706.773Z" stroke="url(#paint16_linear_2484_61)" stroke-width="2"/>
<path d="M401.385 705.612C401.907 700.497 406.043 697.419 409.563 697.228C411.877 697.243 413.777 697.255 417.656 693.974C420.221 691.803 421.636 686.657 426.852 682.746C432.068 678.835 437.545 686.106 443.296 688.063C449.047 690.019 454.277 689.96 459.112 690.631C463.946 691.302 462.802 698.971 457.507 701.389C452.211 703.807 450.924 708.383 443.886 715.055C436.848 721.726 429.774 723.92 421.545 718.322C413.316 712.725 400.734 712.004 401.385 705.612Z" stroke="url(#paint17_linear_2484_61)" stroke-width="2"/>
</g>
<defs>
<linearGradient id="paint0_linear_2484_61" x1="1543" y1="715.48" x2="970.725" y2="498.111" gradientUnits="userSpaceOnUse">
<stop/>
<stop offset="1" stop-color="white"/>
</linearGradient>
<linearGradient id="paint1_linear_2484_61" x1="1621.87" y1="734.555" x2="922.599" y2="468.947" gradientUnits="userSpaceOnUse">
<stop/>
<stop offset="1" stop-color="white"/>
</linearGradient>
<linearGradient id="paint2_linear_2484_61" x1="1452.72" y1="698.093" x2="1038.81" y2="540.872" gradientUnits="userSpaceOnUse">
<stop/>
<stop offset="1" stop-color="white"/>
</linearGradient>
<linearGradient id="paint3_linear_2484_61" x1="1389.71" y1="679.769" x2="1096.52" y2="568.405" gradientUnits="userSpaceOnUse">
<stop/>
<stop offset="1" stop-color="white"/>
</linearGradient>
<linearGradient id="paint4_linear_2484_61" x1="1340.06" y1="664.081" x2="1144.07" y2="589.639" gradientUnits="userSpaceOnUse">
<stop/>
<stop offset="1" stop-color="white"/>
</linearGradient>
<linearGradient id="paint5_linear_2484_61" x1="1307.06" y1="656.484" x2="1190.22" y2="612.105" gradientUnits="userSpaceOnUse">
<stop/>
<stop offset="1" stop-color="white"/>
</linearGradient>
<linearGradient id="paint6_linear_2484_61" x1="354.774" y1="426.355" x2="190.144" y2="215.251" gradientUnits="userSpaceOnUse">
<stop stop-color="white"/>
<stop offset="1"/>
</linearGradient>
<linearGradient id="paint7_linear_2484_61" x1="372.424" y1="462.815" x2="164.975" y2="196.805" gradientUnits="userSpaceOnUse">
<stop stop-color="white"/>
<stop offset="1"/>
</linearGradient>
<linearGradient id="paint8_linear_2484_61" x1="329.515" y1="388.203" x2="210.657" y2="235.792" gradientUnits="userSpaceOnUse">
<stop stop-color="white"/>
<stop offset="1"/>
</linearGradient>
<linearGradient id="paint9_linear_2484_61" x1="311.17" y1="364.45" x2="227.009" y2="256.531" gradientUnits="userSpaceOnUse">
<stop stop-color="white"/>
<stop offset="1"/>
</linearGradient>
<linearGradient id="paint10_linear_2484_61" x1="296.863" y1="346.683" x2="240.017" y2="273.791" gradientUnits="userSpaceOnUse">
<stop stop-color="white"/>
<stop offset="1"/>
</linearGradient>
<linearGradient id="paint11_linear_2484_61" x1="278.466" y1="333.998" x2="245.065" y2="291.167" gradientUnits="userSpaceOnUse">
<stop stop-color="white"/>
<stop offset="1"/>
</linearGradient>
<linearGradient id="paint12_linear_2484_61" x1="417.369" y1="790.215" x2="418.637" y2="593.56" gradientUnits="userSpaceOnUse">
<stop/>
<stop offset="1" stop-color="white"/>
</linearGradient>
<linearGradient id="paint13_linear_2484_61" x1="420.035" y1="812.288" x2="421.633" y2="564.485" gradientUnits="userSpaceOnUse">
<stop/>
<stop offset="1" stop-color="white"/>
</linearGradient>
<linearGradient id="paint14_linear_2484_61" x1="417.746" y1="769.052" x2="418.661" y2="627.072" gradientUnits="userSpaceOnUse">
<stop/>
<stop offset="1" stop-color="white"/>
</linearGradient>
<linearGradient id="paint15_linear_2484_61" x1="420.24" y1="749.667" x2="420.888" y2="649.135" gradientUnits="userSpaceOnUse">
<stop/>
<stop offset="1" stop-color="white"/>
</linearGradient>
<linearGradient id="paint16_linear_2484_61" x1="422.606" y1="733.808" x2="423.044" y2="665.904" gradientUnits="userSpaceOnUse">
<stop/>
<stop offset="1" stop-color="white"/>
</linearGradient>
<linearGradient id="paint17_linear_2484_61" x1="428.606" y1="721.499" x2="428.863" y2="681.6" gradientUnits="userSpaceOnUse">
<stop/>
<stop offset="1" stop-color="white"/>
</linearGradient>
</defs>
</svg>
