<svg width="55" height="55" viewBox="0 0 55 55" fill="none" xmlns="http://www.w3.org/2000/svg">
<path d="M52.4793 48.5833L43.0835 39.1875C44.0002 36.8958 43.5418 33.9166 41.4793 32.0833C39.4168 30.0208 36.4377 29.5625 33.9168 30.7083L38.271 35.0625L35.0627 38.2708L30.4793 33.6875C29.3335 36.2083 29.7918 39.1875 31.8543 41.4791C33.9168 43.5416 36.6668 44 38.9585 43.0833L48.3543 52.4791C48.8127 52.9375 49.5002 52.9375 49.7293 52.4791L52.021 50.1875C52.7085 49.5 52.7085 48.8125 52.4793 48.5833ZM29.7918 45.8333H4.5835V41.25C4.5835 36.2083 12.8335 32.0833 22.9168 32.0833C24.0627 32.0833 25.2085 32.0833 26.1252 32.3125C25.4377 33.6875 25.2085 35.0625 25.2085 36.6666C25.2085 40.3333 27.0418 43.7708 29.7918 45.8333ZM22.9168 9.16663C17.8752 9.16663 13.7502 13.2916 13.7502 18.3333C13.7502 23.375 17.8752 27.5 22.9168 27.5C27.9585 27.5 32.0835 23.375 32.0835 18.3333C32.0835 13.2916 27.9585 9.16663 22.9168 9.16663Z" fill="black"/>
</svg>
