<svg width="53" height="53" viewBox="0 0 53 53" fill="none" xmlns="http://www.w3.org/2000/svg">
<path d="M26.7207 46.375C26.095 46.375 25.5709 46.163 25.1483 45.739C24.7258 45.315 24.5138 44.7909 24.5123 44.1667C24.5123 43.909 24.5675 43.6418 24.678 43.365C24.7884 43.0883 24.954 42.8402 25.1748 42.6208L35.3884 32.4073L33.7873 30.8063L23.629 41.0198C23.4082 41.2406 23.1689 41.4063 22.9113 41.5167C22.6537 41.6271 22.3776 41.6823 22.0832 41.6823C21.4575 41.6823 20.9334 41.471 20.5108 41.0485C20.0883 40.626 19.8763 40.1011 19.8748 39.474C19.8748 39.1059 19.93 38.8019 20.0405 38.5619C20.1509 38.322 20.2981 38.1107 20.4821 37.9281L30.6957 27.7146L29.1498 26.1688L18.9363 36.3271C18.7155 36.5479 18.4762 36.7135 18.2186 36.824C17.9609 36.9344 17.6665 36.9896 17.3353 36.9896C16.7464 36.9896 16.2311 36.7688 15.7894 36.3271C15.3478 35.8854 15.1269 35.3701 15.1269 34.7813C15.1269 34.4868 15.1821 34.2108 15.2925 33.9531C15.403 33.6955 15.5686 33.4563 15.7894 33.2354L26.003 23.0219L24.4019 21.4761L14.2436 31.6896C14.0596 31.8736 13.8387 32.0208 13.5811 32.1313C13.3234 32.2417 13.0106 32.2969 12.6425 32.2969C12.0169 32.2969 11.492 32.0849 11.068 31.6609C10.644 31.2369 10.4327 30.7128 10.4342 30.0885C10.4342 29.7941 10.4894 29.5181 10.5998 29.2604C10.7103 29.0028 10.8759 28.7635 11.0967 28.5427L23.4082 16.2313L31.6894 24.5677C32.0943 24.9726 32.5728 25.295 33.1248 25.535C33.6769 25.7749 34.229 25.8942 34.7811 25.8927C35.9589 25.8927 36.9894 25.479 37.8728 24.6516C38.7561 23.8242 39.1978 22.7657 39.1978 21.4761C39.1978 20.9608 39.1057 20.4271 38.9217 19.875C38.7377 19.3229 38.4064 18.8076 37.928 18.3292L28.0457 8.44688C28.6714 7.858 29.3707 7.4075 30.1436 7.09538C30.9165 6.78327 31.6894 6.62648 32.4623 6.62501C33.4193 6.62501 34.3026 6.7818 35.1123 7.09538C35.9221 7.40897 36.6582 7.89627 37.3207 8.5573L46.6509 17.9427C47.3134 18.6052 47.8014 19.3413 48.115 20.1511C48.4286 20.9608 48.5846 21.8993 48.5832 22.9667C48.5832 23.7028 48.4175 24.4485 48.0863 25.2037C47.755 25.959 47.2766 26.6487 46.6509 27.2729L28.2665 45.7125C27.9721 46.007 27.7144 46.191 27.4936 46.2646C27.2728 46.3382 27.0151 46.375 26.7207 46.375ZM7.78421 28.7083L6.3488 27.2729C5.7231 26.684 5.24463 25.9847 4.91338 25.175C4.58213 24.3653 4.4165 23.5188 4.4165 22.6354C4.4165 21.6785 4.60053 20.7951 4.96859 19.9854C5.33664 19.1757 5.79671 18.4948 6.3488 17.9427L15.679 8.5573C16.2679 7.96841 16.9672 7.49877 17.7769 7.14838C18.5866 6.798 19.378 6.62354 20.1509 6.62501C21.1446 6.62501 22.028 6.7634 22.8009 7.04018C23.5738 7.31695 24.3283 7.82266 25.0644 8.5573L36.3821 19.875C36.603 20.0958 36.7686 20.3351 36.879 20.5927C36.9894 20.8504 37.0446 21.1264 37.0446 21.4208C37.0446 22.0097 36.8238 22.525 36.3821 22.9667C35.9405 23.4083 35.4252 23.6292 34.8363 23.6292C34.505 23.6292 34.229 23.5835 34.0082 23.4923C33.7873 23.401 33.5481 23.2258 33.2905 22.9667L23.353 13.1396L7.78421 28.7083Z" fill="black"/>
</svg>
