<svg width="62" height="62" viewBox="0 0 62 62" fill="none" xmlns="http://www.w3.org/2000/svg">
<path d="M33.5831 7.75C23.8439 7.75 15.9906 15.3708 15.4998 24.955L10.5398 31.4908C9.91976 32.2917 10.5398 33.5833 11.6248 33.5833H15.4998V41.3333C15.4998 44.2008 17.7989 46.5 20.6664 46.5H23.2498V54.25H41.3331V42.1342C47.4556 39.2408 51.6664 33.0667 51.6664 25.8333C51.6664 15.8617 43.6064 7.75 33.5831 7.75ZM25.8331 28.4167C24.4123 28.4167 23.2498 27.2542 23.2498 25.8333C23.2498 24.4125 24.4123 23.25 25.8331 23.25C27.2539 23.25 28.4164 24.4125 28.4164 25.8333C28.4164 27.2542 27.2539 28.4167 25.8331 28.4167ZM33.5831 28.4167C32.1623 28.4167 30.9998 27.2542 30.9998 25.8333C30.9998 24.4125 32.1623 23.25 33.5831 23.25C35.0039 23.25 36.1664 24.4125 36.1664 25.8333C36.1664 27.2542 35.0039 28.4167 33.5831 28.4167ZM41.3331 28.4167C39.9123 28.4167 38.7498 27.2542 38.7498 25.8333C38.7498 24.4125 39.9123 23.25 41.3331 23.25C42.7539 23.25 43.9164 24.4125 43.9164 25.8333C43.9164 27.2542 42.7539 28.4167 41.3331 28.4167Z" fill="black"/>
</svg>
