<svg width="52" height="60" viewBox="0 0 52 60" fill="none" xmlns="http://www.w3.org/2000/svg">
<g filter="url(#filter0_dddd_696_1319)">
<path d="M22.705 41.5714C22.1242 41.5714 21.6376 41.3598 21.2454 40.9366C20.8532 40.5135 20.6564 39.9904 20.655 39.3673C20.655 39.1102 20.7062 38.8435 20.8087 38.5673C20.9112 38.291 21.065 38.0434 21.27 37.8245L30.7512 27.6306L29.265 26.0326L19.835 36.2265C19.63 36.4469 19.4079 36.6122 19.1687 36.7224C18.9296 36.8326 18.6733 36.8877 18.4 36.8877C17.8192 36.8877 17.3326 36.6769 16.9404 36.2552C16.5482 35.8335 16.3514 35.3096 16.35 34.6837C16.35 34.3163 16.4012 34.0129 16.5037 33.7734C16.6062 33.5339 16.7429 33.323 16.9137 33.1408L26.395 22.9469L24.96 21.4041L15.4787 31.5429C15.2737 31.7633 15.0517 31.9286 14.8125 32.0388C14.5733 32.149 14.3 32.2041 13.9925 32.2041C13.4458 32.2041 12.9675 31.9837 12.5575 31.5429C12.1475 31.102 11.9425 30.5877 11.9425 30C11.9425 29.7061 11.9937 29.4306 12.0962 29.1735C12.1987 28.9163 12.3525 28.6775 12.5575 28.4571L22.0387 18.2633L20.5525 16.7204L11.1225 26.9143C10.9517 27.098 10.7467 27.2449 10.5075 27.3551C10.2683 27.4653 9.97792 27.5204 9.63625 27.5204C9.05542 27.5204 8.5682 27.3088 8.1746 26.8856C7.781 26.4624 7.58488 25.9393 7.58625 25.3163C7.58625 25.0224 7.6375 24.7469 7.74 24.4898C7.8425 24.2326 7.99625 23.9939 8.20125 23.7735L19.63 11.4857L27.3175 19.8061C27.6933 20.2102 28.1375 20.532 28.65 20.7715C29.1625 21.011 29.675 21.13 30.1875 21.1286C31.2808 21.1286 32.2375 20.7157 33.0575 19.8899C33.8775 19.0641 34.2875 18.0076 34.2875 16.7204C34.2875 16.2061 34.2021 15.6735 34.0312 15.1224C33.8604 14.5714 33.5529 14.0571 33.1087 13.5796L23.935 3.71633C24.5158 3.12857 25.165 2.67894 25.8825 2.36743C26.6 2.05592 27.3175 1.89943 28.035 1.89796C28.9233 1.89796 29.7433 2.05445 30.495 2.36743C31.2467 2.68041 31.93 3.16677 32.545 3.82653L41.2062 13.1939C41.8212 13.8551 42.2743 14.5898 42.5654 15.398C42.8565 16.2061 43.0014 17.1429 43 18.2082C43 18.9429 42.8462 19.6871 42.5387 20.4409C42.2312 21.1947 41.7871 21.8831 41.2062 22.5061L24.14 40.9102C23.8667 41.2041 23.6275 41.3877 23.4225 41.4612C23.2175 41.5347 22.9783 41.5714 22.705 41.5714ZM5.12625 23.9388L3.79375 22.5061C3.21292 21.9184 2.76875 21.2204 2.46125 20.4122C2.15375 19.6041 2 18.7592 2 17.8775C2 16.9224 2.17083 16.0408 2.5125 15.2326C2.85417 14.4245 3.28125 13.7449 3.79375 13.1939L12.455 3.82653C13.0017 3.23877 13.6508 2.77004 14.4025 2.42033C15.1542 2.07061 15.8887 1.89649 16.6062 1.89796C17.5287 1.89796 18.3487 2.03608 19.0662 2.31233C19.7837 2.58857 20.4842 3.0933 21.1675 3.82653L31.6737 15.1224C31.8787 15.3429 32.0325 15.5816 32.135 15.8388C32.2375 16.0959 32.2887 16.3714 32.2887 16.6653C32.2887 17.2531 32.0837 17.7673 31.6737 18.2082C31.2637 18.649 30.7854 18.8694 30.2387 18.8694C29.9312 18.8694 29.675 18.8238 29.47 18.7327C29.265 18.6416 29.0429 18.4668 28.8037 18.2082L19.5787 8.4L5.12625 23.9388Z" fill="black"/>
</g>
<defs>
<filter id="filter0_dddd_696_1319" x="0" y="0.897949" width="52" height="58.6735" filterUnits="userSpaceOnUse" color-interpolation-filters="sRGB">
<feFlood flood-opacity="0" result="BackgroundImageFix"/>
<feColorMatrix in="SourceAlpha" type="matrix" values="0 0 0 0 0 0 0 0 0 0 0 0 0 0 0 0 0 0 127 0" result="hardAlpha"/>
<feOffset dy="1"/>
<feGaussianBlur stdDeviation="1"/>
<feColorMatrix type="matrix" values="0 0 0 0 0 0 0 0 0 0 0 0 0 0 0 0 0 0 0.1 0"/>
<feBlend mode="normal" in2="BackgroundImageFix" result="effect1_dropShadow_696_1319"/>
<feColorMatrix in="SourceAlpha" type="matrix" values="0 0 0 0 0 0 0 0 0 0 0 0 0 0 0 0 0 0 127 0" result="hardAlpha"/>
<feOffset dx="1" dy="3"/>
<feGaussianBlur stdDeviation="1.5"/>
<feColorMatrix type="matrix" values="0 0 0 0 0 0 0 0 0 0 0 0 0 0 0 0 0 0 0.09 0"/>
<feBlend mode="normal" in2="effect1_dropShadow_696_1319" result="effect2_dropShadow_696_1319"/>
<feColorMatrix in="SourceAlpha" type="matrix" values="0 0 0 0 0 0 0 0 0 0 0 0 0 0 0 0 0 0 127 0" result="hardAlpha"/>
<feOffset dx="2" dy="7"/>
<feGaussianBlur stdDeviation="2"/>
<feColorMatrix type="matrix" values="0 0 0 0 0 0 0 0 0 0 0 0 0 0 0 0 0 0 0.05 0"/>
<feBlend mode="normal" in2="effect2_dropShadow_696_1319" result="effect3_dropShadow_696_1319"/>
<feColorMatrix in="SourceAlpha" type="matrix" values="0 0 0 0 0 0 0 0 0 0 0 0 0 0 0 0 0 0 127 0" result="hardAlpha"/>
<feOffset dx="4" dy="13"/>
<feGaussianBlur stdDeviation="2.5"/>
<feColorMatrix type="matrix" values="0 0 0 0 0 0 0 0 0 0 0 0 0 0 0 0 0 0 0.01 0"/>
<feBlend mode="normal" in2="effect3_dropShadow_696_1319" result="effect4_dropShadow_696_1319"/>
<feBlend mode="normal" in="SourceGraphic" in2="effect4_dropShadow_696_1319" result="shape"/>
</filter>
</defs>
</svg>
