<svg width="45" height="56" viewBox="0 0 45 56" fill="none" xmlns="http://www.w3.org/2000/svg">
<g filter="url(#filter0_dddd_696_1328)">
<path d="M19.5 39.1131C9.83475 39.1131 2 30.6876 2 20.2936C2 9.8996 9.83475 1.47412 19.5 1.47412C29.1652 1.47412 37 9.8996 37 20.2936C37 30.6876 29.1652 39.1131 19.5 39.1131ZM10.75 20.2936C10.75 22.7892 11.6719 25.1826 13.3128 26.9473C14.9538 28.7119 17.1794 29.7033 19.5 29.7033C21.8206 29.7033 24.0462 28.7119 25.6872 26.9473C27.3281 25.1826 28.25 22.7892 28.25 20.2936H24.75C24.75 21.791 24.1969 23.227 23.2123 24.2858C22.2277 25.3446 20.8924 25.9394 19.5 25.9394C18.1076 25.9394 16.7723 25.3446 15.7877 24.2858C14.8031 23.227 14.25 21.791 14.25 20.2936H10.75Z" fill="black"/>
</g>
<defs>
<filter id="filter0_dddd_696_1328" x="0" y="0.474121" width="45" height="54.6389" filterUnits="userSpaceOnUse" color-interpolation-filters="sRGB">
<feFlood flood-opacity="0" result="BackgroundImageFix"/>
<feColorMatrix in="SourceAlpha" type="matrix" values="0 0 0 0 0 0 0 0 0 0 0 0 0 0 0 0 0 0 127 0" result="hardAlpha"/>
<feOffset dy="1"/>
<feGaussianBlur stdDeviation="1"/>
<feColorMatrix type="matrix" values="0 0 0 0 0 0 0 0 0 0 0 0 0 0 0 0 0 0 0.1 0"/>
<feBlend mode="normal" in2="BackgroundImageFix" result="effect1_dropShadow_696_1328"/>
<feColorMatrix in="SourceAlpha" type="matrix" values="0 0 0 0 0 0 0 0 0 0 0 0 0 0 0 0 0 0 127 0" result="hardAlpha"/>
<feOffset dx="1" dy="3"/>
<feGaussianBlur stdDeviation="1.5"/>
<feColorMatrix type="matrix" values="0 0 0 0 0 0 0 0 0 0 0 0 0 0 0 0 0 0 0.09 0"/>
<feBlend mode="normal" in2="effect1_dropShadow_696_1328" result="effect2_dropShadow_696_1328"/>
<feColorMatrix in="SourceAlpha" type="matrix" values="0 0 0 0 0 0 0 0 0 0 0 0 0 0 0 0 0 0 127 0" result="hardAlpha"/>
<feOffset dx="2" dy="6"/>
<feGaussianBlur stdDeviation="2"/>
<feColorMatrix type="matrix" values="0 0 0 0 0 0 0 0 0 0 0 0 0 0 0 0 0 0 0.05 0"/>
<feBlend mode="normal" in2="effect2_dropShadow_696_1328" result="effect3_dropShadow_696_1328"/>
<feColorMatrix in="SourceAlpha" type="matrix" values="0 0 0 0 0 0 0 0 0 0 0 0 0 0 0 0 0 0 127 0" result="hardAlpha"/>
<feOffset dx="3" dy="11"/>
<feGaussianBlur stdDeviation="2.5"/>
<feColorMatrix type="matrix" values="0 0 0 0 0 0 0 0 0 0 0 0 0 0 0 0 0 0 0.01 0"/>
<feBlend mode="normal" in2="effect3_dropShadow_696_1328" result="effect4_dropShadow_696_1328"/>
<feBlend mode="normal" in="SourceGraphic" in2="effect4_dropShadow_696_1328" result="shape"/>
</filter>
</defs>
</svg>
