<svg width="49" height="65" viewBox="0 0 49 65" fill="none" xmlns="http://www.w3.org/2000/svg">
<g filter="url(#filter0_dddd_696_1331)">
<path d="M24.3909 0.993652C15.4458 0.993652 8.23267 8.49601 7.78185 17.9312L3.22622 24.3654C2.65677 25.1538 3.22622 26.4254 4.22277 26.4254H7.78185V34.0549C7.78185 36.8778 9.89358 39.1412 12.5273 39.1412H14.9V46.7707H31.5091V34.8433C37.1325 31.9949 41 25.9167 41 18.7959C41 8.97921 33.5971 0.993652 24.3909 0.993652ZM17.2728 21.339C15.9678 21.339 14.9 20.1946 14.9 18.7959C14.9 17.3971 15.9678 16.2527 17.2728 16.2527C18.5778 16.2527 19.6455 17.3971 19.6455 18.7959C19.6455 20.1946 18.5778 21.339 17.2728 21.339ZM24.3909 21.339C23.0859 21.339 22.0182 20.1946 22.0182 18.7959C22.0182 17.3971 23.0859 16.2527 24.3909 16.2527C25.6959 16.2527 26.7637 17.3971 26.7637 18.7959C26.7637 20.1946 25.6959 21.339 24.3909 21.339ZM31.5091 21.339C30.2041 21.339 29.1364 20.1946 29.1364 18.7959C29.1364 17.3971 30.2041 16.2527 31.5091 16.2527C32.8141 16.2527 33.8818 17.3971 33.8818 18.7959C33.8818 20.1946 32.8141 21.339 31.5091 21.339Z" fill="black"/>
</g>
<defs>
<filter id="filter0_dddd_696_1331" x="0" y="-0.00634766" width="49" height="64.7771" filterUnits="userSpaceOnUse" color-interpolation-filters="sRGB">
<feFlood flood-opacity="0" result="BackgroundImageFix"/>
<feColorMatrix in="SourceAlpha" type="matrix" values="0 0 0 0 0 0 0 0 0 0 0 0 0 0 0 0 0 0 127 0" result="hardAlpha"/>
<feOffset dy="1"/>
<feGaussianBlur stdDeviation="1"/>
<feColorMatrix type="matrix" values="0 0 0 0 0 0 0 0 0 0 0 0 0 0 0 0 0 0 0.1 0"/>
<feBlend mode="normal" in2="BackgroundImageFix" result="effect1_dropShadow_696_1331"/>
<feColorMatrix in="SourceAlpha" type="matrix" values="0 0 0 0 0 0 0 0 0 0 0 0 0 0 0 0 0 0 127 0" result="hardAlpha"/>
<feOffset dx="1" dy="3"/>
<feGaussianBlur stdDeviation="1.5"/>
<feColorMatrix type="matrix" values="0 0 0 0 0 0 0 0 0 0 0 0 0 0 0 0 0 0 0.09 0"/>
<feBlend mode="normal" in2="effect1_dropShadow_696_1331" result="effect2_dropShadow_696_1331"/>
<feColorMatrix in="SourceAlpha" type="matrix" values="0 0 0 0 0 0 0 0 0 0 0 0 0 0 0 0 0 0 127 0" result="hardAlpha"/>
<feOffset dx="2" dy="7"/>
<feGaussianBlur stdDeviation="2.5"/>
<feColorMatrix type="matrix" values="0 0 0 0 0 0 0 0 0 0 0 0 0 0 0 0 0 0 0.05 0"/>
<feBlend mode="normal" in2="effect2_dropShadow_696_1331" result="effect3_dropShadow_696_1331"/>
<feColorMatrix in="SourceAlpha" type="matrix" values="0 0 0 0 0 0 0 0 0 0 0 0 0 0 0 0 0 0 127 0" result="hardAlpha"/>
<feOffset dx="3" dy="13"/>
<feGaussianBlur stdDeviation="2.5"/>
<feColorMatrix type="matrix" values="0 0 0 0 0 0 0 0 0 0 0 0 0 0 0 0 0 0 0.01 0"/>
<feBlend mode="normal" in2="effect3_dropShadow_696_1331" result="effect4_dropShadow_696_1331"/>
<feBlend mode="normal" in="SourceGraphic" in2="effect4_dropShadow_696_1331" result="shape"/>
</filter>
</defs>
</svg>
