<svg width="50" height="54" viewBox="0 0 50 54" fill="none" xmlns="http://www.w3.org/2000/svg">
<g filter="url(#filter0_dddd_696_1314)">
<path d="M21 38.0863C18.77 38.0863 16.6814 37.644 14.7345 36.7594C12.7875 35.8748 11.0926 34.6789 9.64995 33.1718C8.20726 31.6647 7.0625 29.8942 6.21568 27.8602C5.36886 25.8263 4.94485 23.6439 4.94366 21.3131C4.94247 18.9822 5.36648 16.8005 6.21568 14.7678C7.06488 12.7351 8.20905 10.9646 9.64817 9.45625C11.0873 7.9479 12.7821 6.75203 14.7327 5.86864C16.6832 4.98524 18.7723 4.54231 21 4.53982C23.2277 4.53734 25.3168 4.98027 27.2673 5.86864C29.2179 6.757 30.9127 7.95287 32.3518 9.45625C33.791 10.9596 34.9357 12.7301 35.7861 14.7678C36.6365 16.8054 37.0599 18.9872 37.0563 21.3131C37.0528 23.639 36.6294 25.8214 35.7861 27.8602C34.9428 29.8991 33.7981 31.6696 32.3518 33.1718C30.9056 34.6739 29.2107 35.8698 27.2673 36.7594C25.3239 37.649 23.2348 38.0913 21 38.0863ZM25.9953 29.1406L28.493 26.5314L22.784 20.5676V11.9946H19.216V22.0586L25.9953 29.1406ZM9.58216 1.46472L12.0798 4.0739L4.49765 11.9946L2 9.38543L9.58216 1.46472ZM32.4178 1.46472L40 9.38543L37.5023 11.9946L29.9202 4.0739L32.4178 1.46472Z" fill="black"/>
<path d="M21.001 5.03992C23.0246 5.03771 24.9244 5.41437 26.7051 6.16785L27.0605 6.3241C28.8364 7.13297 30.3908 8.20193 31.7266 9.5321L31.9902 9.80164C33.2972 11.1669 34.3564 12.7625 35.166 14.5917L35.3242 14.9608C36.0961 16.8105 36.5064 18.7853 36.5518 20.8895L36.5566 21.3124C36.5534 23.4349 36.191 25.4284 35.4727 27.2968L35.3242 27.6688C34.5035 29.6533 33.3916 31.3706 31.9912 32.8251C30.6771 34.1899 29.1513 35.2948 27.4102 36.1395L27.0596 36.3046C25.3019 37.1091 23.4186 37.5357 21.4053 37.5819L21.001 37.5868H21C18.9731 37.5868 17.0731 37.2096 15.2949 36.4589L14.9414 36.3046C13.0509 35.4456 11.4083 34.286 10.0107 32.826C8.70042 31.4572 7.64153 29.8617 6.83496 28.036L6.67773 27.6678C5.90891 25.8213 5.49748 23.8455 5.44824 21.7362L5.44336 21.3124C5.44233 19.1858 5.80458 17.1932 6.52734 15.3309L6.67676 14.9608C7.4521 13.1049 8.47763 11.4784 9.75195 10.078L10.0098 9.80164C11.4033 8.34106 13.0449 7.18174 14.9385 6.3241C16.7042 5.52442 18.5893 5.09699 20.5977 5.0448L21.001 5.03992ZM18.7158 22.2596L18.8545 22.4042L25.6338 29.4862L25.9951 29.8641L26.3564 29.4862L28.8545 26.8768L29.1855 26.5311L28.8545 26.1854L23.2842 20.3661V11.495H18.7158V22.2596ZM11.3877 4.0741L4.49707 11.2714L2.69141 9.38562L9.58203 2.18738L11.3877 4.0741ZM39.3076 9.38562L37.502 11.2714L30.6113 4.0741L32.417 2.18738L39.3076 9.38562Z" stroke="black"/>
</g>
<defs>
<filter id="filter0_dddd_696_1314" x="0" y="0.464722" width="50" height="52.6217" filterUnits="userSpaceOnUse" color-interpolation-filters="sRGB">
<feFlood flood-opacity="0" result="BackgroundImageFix"/>
<feColorMatrix in="SourceAlpha" type="matrix" values="0 0 0 0 0 0 0 0 0 0 0 0 0 0 0 0 0 0 127 0" result="hardAlpha"/>
<feOffset dy="1"/>
<feGaussianBlur stdDeviation="1"/>
<feColorMatrix type="matrix" values="0 0 0 0 0 0 0 0 0 0 0 0 0 0 0 0 0 0 0.1 0"/>
<feBlend mode="normal" in2="BackgroundImageFix" result="effect1_dropShadow_696_1314"/>
<feColorMatrix in="SourceAlpha" type="matrix" values="0 0 0 0 0 0 0 0 0 0 0 0 0 0 0 0 0 0 127 0" result="hardAlpha"/>
<feOffset dx="1" dy="3"/>
<feGaussianBlur stdDeviation="1.5"/>
<feColorMatrix type="matrix" values="0 0 0 0 0 0 0 0 0 0 0 0 0 0 0 0 0 0 0.09 0"/>
<feBlend mode="normal" in2="effect1_dropShadow_696_1314" result="effect2_dropShadow_696_1314"/>
<feColorMatrix in="SourceAlpha" type="matrix" values="0 0 0 0 0 0 0 0 0 0 0 0 0 0 0 0 0 0 127 0" result="hardAlpha"/>
<feOffset dx="3" dy="6"/>
<feGaussianBlur stdDeviation="2"/>
<feColorMatrix type="matrix" values="0 0 0 0 0 0 0 0 0 0 0 0 0 0 0 0 0 0 0.05 0"/>
<feBlend mode="normal" in2="effect2_dropShadow_696_1314" result="effect3_dropShadow_696_1314"/>
<feColorMatrix in="SourceAlpha" type="matrix" values="0 0 0 0 0 0 0 0 0 0 0 0 0 0 0 0 0 0 127 0" result="hardAlpha"/>
<feOffset dx="5" dy="10"/>
<feGaussianBlur stdDeviation="2.5"/>
<feColorMatrix type="matrix" values="0 0 0 0 0 0 0 0 0 0 0 0 0 0 0 0 0 0 0.01 0"/>
<feBlend mode="normal" in2="effect3_dropShadow_696_1314" result="effect4_dropShadow_696_1314"/>
<feBlend mode="normal" in="SourceGraphic" in2="effect4_dropShadow_696_1314" result="shape"/>
</filter>
</defs>
</svg>
