<svg width="61" height="71" viewBox="0 0 61 71" fill="none" xmlns="http://www.w3.org/2000/svg">
<g filter="url(#filter0_dddd_696_1322)">
<path d="M48.0411 38.7604C49.4735 37.783 49.7793 35.9177 48.7251 34.5897C47.6709 33.2616 45.659 32.9781 44.2266 33.9555L34.5939 40.5361H24.8888C24.1806 40.5361 23.6012 39.9989 23.6012 39.3424C23.6012 38.6858 24.1806 38.1486 24.8888 38.1486H31.3267C32.7511 38.1486 33.9019 37.0817 33.9019 35.7611C33.9019 34.4405 32.7511 33.3735 31.3267 33.3735H18.5877C16.246 33.3735 13.9766 34.1122 12.1498 35.4626L8.53658 38.1486H5.57515C4.15077 38.1486 3 39.2155 3 40.5361V45.3112C3 46.6318 4.15077 47.6987 5.57515 47.6987H31.3669C33.7007 47.6987 35.9781 47.0048 37.8612 45.7215L48.0491 38.7604H48.0411Z" fill="black"/>
<path d="M26.8734 14.9563C30.762 14.9563 33.9142 18.4545 33.9142 22.77C33.9142 27.0856 30.762 30.5838 26.8734 30.5838C22.9847 30.5838 19.8325 27.0856 19.8325 22.77C19.8325 18.4545 22.9847 14.9563 26.8734 14.9563ZM26.8734 18.0818C26.6866 18.0818 26.5076 18.1641 26.3755 18.3107C26.2435 18.4572 26.1693 18.6559 26.1693 18.8632V22.77C26.1693 22.9772 26.2435 23.176 26.3756 23.3225L28.4878 25.6666C28.6206 25.8089 28.7985 25.8877 28.9831 25.8859C29.1677 25.8841 29.3443 25.8019 29.4748 25.6571C29.6054 25.5122 29.6794 25.3162 29.681 25.1113C29.6826 24.9065 29.6117 24.7091 29.4834 24.5617L27.5775 22.4465V18.8632C27.5775 18.6559 27.5033 18.4572 27.3712 18.3107C27.2392 18.1641 27.0601 18.0818 26.8734 18.0818Z" fill="black"/>
<path d="M20.0502 10.935C20.1897 11.2476 20.4354 11.4866 20.7334 11.5994C21.0314 11.7121 21.3572 11.6895 21.6392 11.5364C23.694 10.4197 26.0063 10.0114 28.2777 10.3641C30.5492 10.7169 32.6754 11.8146 34.3821 13.5154C36.0888 15.2163 37.2977 17.4424 37.8526 19.9063C38.4075 22.3702 38.2831 24.9589 37.4953 27.3384L37.012 25.7482C36.9167 25.4333 36.7173 25.1695 36.454 25.0099C36.1906 24.8504 35.8829 24.8068 35.5925 24.8881C35.3021 24.9693 35.0507 25.1693 34.8889 25.4479C34.727 25.7264 34.6666 26.0628 34.7199 26.3895L34.7642 26.5782L36.1923 31.276C36.2829 31.5743 36.4672 31.8271 36.7116 31.9884C36.9559 32.1498 37.2442 32.2089 37.5239 32.1551L37.6942 32.1066L41.9338 30.5435C42.2164 30.438 42.4522 30.2182 42.5943 29.9281C42.7363 29.6381 42.774 29.299 42.7 28.9786C42.626 28.6582 42.4456 28.38 42.1948 28.1996C41.9441 28.0192 41.6415 27.9498 41.3473 28.0053L41.1777 28.0521L39.5878 28.6383C40.6202 25.7643 40.84 22.6082 40.2182 19.5864C39.5965 16.5646 38.1623 13.819 36.1049 11.7117C34.0476 9.60444 31.4636 8.23449 28.6939 7.78256C25.9242 7.33063 23.0989 7.81794 20.5906 9.18023C20.3085 9.33314 20.0933 9.60397 19.9923 9.93317C19.8912 10.2624 19.9125 10.623 20.0516 10.9358M10.7743 16.9815C10.8748 17.3115 11.0895 17.5844 11.3711 17.7401C11.6527 17.8959 11.9782 17.9218 12.2762 17.8122L13.8661 17.226C12.8492 20.0532 12.6185 23.1549 13.2034 26.1344C13.7883 29.114 15.1622 31.8362 17.1495 33.9527C19.1368 36.0693 21.6472 37.4841 24.3597 38.0164C27.0722 38.5486 29.8635 38.174 32.3767 36.9405C32.519 36.8708 32.6475 36.7707 32.7547 36.6459C32.8619 36.5211 32.9457 36.3741 33.0015 36.2132C33.0572 36.0523 33.0837 35.8808 33.0795 35.7083C33.0753 35.5359 33.0404 35.3659 32.9769 35.2081C32.9134 35.0503 32.8224 34.9078 32.7093 34.7887C32.5961 34.6696 32.463 34.5763 32.3174 34.514C32.1718 34.4517 32.0167 34.4217 31.8609 34.4258C31.7051 34.4298 31.5516 34.4678 31.4093 34.5375C29.3513 35.5472 27.0678 35.8623 24.8442 35.4433C22.6206 35.0243 20.5554 33.8898 18.9068 32.1816C17.2582 30.4734 16.0992 28.2672 15.5747 25.8388C15.0503 23.4103 15.1835 20.8673 15.9579 18.5275L16.4419 20.1161C16.4897 20.2824 16.5669 20.4367 16.6689 20.5699C16.771 20.703 16.896 20.8125 17.0365 20.8918C17.177 20.9711 17.3303 21.0187 17.4874 21.0318C17.6445 21.045 17.8023 21.0233 17.9516 20.9682C18.1008 20.9131 18.2386 20.8256 18.3567 20.7108C18.4749 20.5961 18.5711 20.4563 18.6399 20.2997C18.7086 20.1431 18.7483 19.9728 18.7569 19.7988C18.7654 19.6248 18.7426 19.4505 18.6896 19.2861L17.2616 14.5883C17.1611 14.2583 16.9464 13.9854 16.6648 13.8297C16.3832 13.6739 16.0577 13.648 15.7597 13.7576L11.5201 15.3208C11.2222 15.4308 10.9764 15.6674 10.8367 15.9785C10.697 16.2895 10.6748 16.6497 10.775 16.9799" fill="black"/>
</g>
<defs>
<filter id="filter0_dddd_696_1322" x="0" y="6.61865" width="60.3521" height="64.0801" filterUnits="userSpaceOnUse" color-interpolation-filters="sRGB">
<feFlood flood-opacity="0" result="BackgroundImageFix"/>
<feColorMatrix in="SourceAlpha" type="matrix" values="0 0 0 0 0 0 0 0 0 0 0 0 0 0 0 0 0 0 127 0" result="hardAlpha"/>
<feOffset dy="1"/>
<feGaussianBlur stdDeviation="1"/>
<feColorMatrix type="matrix" values="0 0 0 0 0 0 0 0 0 0 0 0 0 0 0 0 0 0 0.1 0"/>
<feBlend mode="normal" in2="BackgroundImageFix" result="effect1_dropShadow_696_1322"/>
<feColorMatrix in="SourceAlpha" type="matrix" values="0 0 0 0 0 0 0 0 0 0 0 0 0 0 0 0 0 0 127 0" result="hardAlpha"/>
<feOffset dx="1" dy="4"/>
<feGaussianBlur stdDeviation="2"/>
<feColorMatrix type="matrix" values="0 0 0 0 0 0 0 0 0 0 0 0 0 0 0 0 0 0 0.09 0"/>
<feBlend mode="normal" in2="effect1_dropShadow_696_1322" result="effect2_dropShadow_696_1322"/>
<feColorMatrix in="SourceAlpha" type="matrix" values="0 0 0 0 0 0 0 0 0 0 0 0 0 0 0 0 0 0 127 0" result="hardAlpha"/>
<feOffset dx="3" dy="9"/>
<feGaussianBlur stdDeviation="3"/>
<feColorMatrix type="matrix" values="0 0 0 0 0 0 0 0 0 0 0 0 0 0 0 0 0 0 0.05 0"/>
<feBlend mode="normal" in2="effect2_dropShadow_696_1322" result="effect3_dropShadow_696_1322"/>
<feColorMatrix in="SourceAlpha" type="matrix" values="0 0 0 0 0 0 0 0 0 0 0 0 0 0 0 0 0 0 127 0" result="hardAlpha"/>
<feOffset dx="4" dy="16"/>
<feGaussianBlur stdDeviation="3.5"/>
<feColorMatrix type="matrix" values="0 0 0 0 0 0 0 0 0 0 0 0 0 0 0 0 0 0 0.01 0"/>
<feBlend mode="normal" in2="effect3_dropShadow_696_1322" result="effect4_dropShadow_696_1322"/>
<feBlend mode="normal" in="SourceGraphic" in2="effect4_dropShadow_696_1322" result="shape"/>
</filter>
</defs>
</svg>
