<svg width="432" height="418" viewBox="0 0 432 418" fill="none" xmlns="http://www.w3.org/2000/svg">
<path d="M37.5 0C11.5 0 0 19.5 0 19.5V417.5H432V0C416.965 7.61522 415 14.0001 400.5 14.0001C386 14.0001 395 0 364.5 0C334 0 341 14.0001 319 14.0001C297 14.0001 309.5 0 284 0C258.5 0 253.5 14.0001 234 14.0001C214.5 14.0001 215 0 194.5 0C174 0 177 14.0001 160.5 14.0001C144 14.0001 144.5 0 120 0C95.5 0 105.5 14.0001 80 14.0001C54.5 14.0001 63.5 0 37.5 0Z" fill="url(#paint0_linear_2685_63)"/>
<path d="M37.5 0C11.5 0 0 19.5 0 19.5V417.5H432V0C416.965 7.61522 415 14.0001 400.5 14.0001C386 14.0001 395 0 364.5 0C334 0 341 14.0001 319 14.0001C297 14.0001 309.5 0 284 0C258.5 0 253.5 14.0001 234 14.0001C214.5 14.0001 215 0 194.5 0C174 0 177 14.0001 160.5 14.0001C144 14.0001 144.5 0 120 0C95.5 0 105.5 14.0001 80 14.0001C54.5 14.0001 63.5 0 37.5 0Z" fill="black" fill-opacity="0.3"/>
<defs>
<linearGradient id="paint0_linear_2685_63" x1="216" y1="0" x2="216" y2="417.5" gradientUnits="userSpaceOnUse">
<stop stop-color="#FFE3FB"/>
<stop offset="1"/>
</linearGradient>
</defs>
</svg>
