<svg width="88" height="88" viewBox="0 0 88 88" fill="none" xmlns="http://www.w3.org/2000/svg">
<path d="M43.9999 2.34668L30.1766 11H18.3333V18.3333L10.8899 23.0633C8.76325 24.3467 7.33325 26.6567 7.33325 29.3333V66C7.33325 67.9449 8.10587 69.8102 9.48114 71.1855C10.8564 72.5607 12.7217 73.3334 14.6666 73.3334H73.3333C77.4033 73.3334 80.6666 70.07 80.6666 66V29.3333C80.6666 26.6567 79.2366 24.3467 77.1099 23.0633L69.6666 18.3333V11H57.8233M25.6666 18.3333H62.3333V36.2267L43.9999 47.6667L25.6666 36.2267M29.3333 22V27.5H58.6666V22M18.3333 27.06V31.6433L14.6666 29.3333M69.6666 27.06L73.3333 29.3333L69.6666 31.6433M29.3333 31.1667V36.6667H58.6666V31.1667H29.3333Z" fill="white"/>
</svg>
