<svg width="35" height="39" viewBox="0 0 35 39" fill="none" xmlns="http://www.w3.org/2000/svg">
<path d="M34.9475 26.8997C34.9566 27.2914 34.837 27.6753 34.6071 27.9926C34.3801 28.3161 34.0526 28.5554 33.6754 28.6734L30.6117 29.6947C29.668 30.0081 28.8095 30.5354 28.1033 31.2355C27.398 31.9375 26.8698 32.7973 26.5625 33.7438L25.4875 36.7897C25.3755 37.1553 25.1495 37.4755 24.8425 37.7034C24.5148 37.9259 24.1277 38.0446 23.7317 38.0438C23.3342 38.0608 22.9423 37.945 22.6179 37.7147C22.2935 37.4844 22.055 37.1526 21.94 36.7717L20.9188 33.708C20.6115 32.7615 20.0833 31.9017 19.3779 31.1997C18.6659 30.5028 17.8097 29.9707 16.8696 29.6409L13.8058 28.6376C13.4431 28.5104 13.1255 28.28 12.8921 27.9747C12.6569 27.6511 12.5256 27.2637 12.5158 26.8638C12.4989 26.4663 12.6146 26.0745 12.845 25.7501C13.0753 25.4257 13.4071 25.1872 13.7879 25.0722L16.8696 24.0509C17.8253 23.7421 18.694 23.2107 19.4042 22.5005C20.1144 21.7903 20.6458 20.9216 20.9546 19.9659L21.9758 16.938C22.0803 16.5654 22.3025 16.2367 22.6093 16.0009C22.9161 15.7652 23.291 15.6351 23.6779 15.6301C24.0631 15.6301 24.4412 15.7358 24.7708 15.9347C25.0969 16.1586 25.3478 16.4775 25.4875 16.8484L26.5267 19.9659C26.8355 20.9216 27.3669 21.7903 28.0771 22.5005C28.7873 23.2107 29.656 23.7421 30.6117 24.0509L33.6575 25.1259C34.0281 25.2474 34.3489 25.4864 34.5713 25.8067C34.814 26.1195 34.9463 26.5038 34.9475 26.8997ZM17.0326 15.5047C17.0299 15.8559 16.924 16.1986 16.728 16.4901C16.5163 16.7785 16.223 16.9969 15.886 17.1172L13.6285 17.8697C12.996 18.0882 12.4227 18.443 11.9443 18.9088C11.4767 19.3857 11.1216 19.9611 10.9051 20.593L10.1347 22.8147C10.0255 23.1575 9.80475 23.4539 9.50763 23.6567C9.21308 23.8624 8.86351 23.9748 8.5043 23.9792C8.13703 23.9731 7.78052 23.8543 7.48305 23.6388C7.20125 23.4245 6.98927 23.1315 6.87388 22.7967L6.1393 20.5572C5.92375 19.9301 5.5684 19.3603 5.10013 18.8909C4.64128 18.4095 4.06807 18.052 3.43388 17.8517L1.1943 17.0992C0.846785 16.9899 0.544701 16.7696 0.334298 16.4722C0.191683 16.2488 0.100394 15.9966 0.0670087 15.7337C0.0336234 15.4708 0.0589739 15.2038 0.141233 14.9518C0.223492 14.6999 0.360612 14.4694 0.54271 14.2768C0.724808 14.0843 0.94735 13.9346 1.1943 13.8384L3.43388 13.1038C4.06759 12.8826 4.6432 12.5211 5.11783 12.0465C5.59245 11.5719 5.95386 10.9963 6.17513 10.3626L6.90971 8.15883C7.01532 7.82857 7.21448 7.53605 7.48305 7.31674C7.76844 7.1017 8.11161 6.97691 8.46846 6.95841C8.83001 6.9487 9.18603 7.04863 9.48971 7.24508C9.78859 7.44683 10.0196 7.73407 10.1526 8.06924L10.9051 10.3626C11.1264 10.9963 11.4878 11.5719 11.9624 12.0465C12.4371 12.5211 13.0127 12.8826 13.6464 13.1038L15.886 13.8742C16.2209 13.9893 16.5099 14.2092 16.7101 14.5013C16.9222 14.7927 17.0352 15.1443 17.0326 15.5047ZM27.4046 5.90133C27.3884 6.228 27.283 6.544 27.1 6.81508C26.9136 7.07057 26.6497 7.25908 26.3475 7.35258L25.2367 7.72883C25.0209 7.8033 24.8249 7.92588 24.6635 8.08729C24.5021 8.2487 24.3795 8.44471 24.305 8.66049L23.9108 9.78924C23.8026 10.0641 23.6233 10.3052 23.3913 10.488C23.1271 10.6996 22.798 10.8135 22.4596 10.8105C22.1499 10.7913 21.8491 10.6992 21.5817 10.5417C21.3138 10.3444 21.1135 10.069 21.0083 9.75341L20.6321 8.64258C20.5674 8.42227 20.4434 8.22395 20.2738 8.06924C20.1158 7.9035 19.9186 7.78025 19.7004 7.71091L18.5896 7.35258C18.294 7.23733 18.0343 7.04566 17.8371 6.79716C17.6512 6.52863 17.5512 6.21 17.5504 5.88341C17.5608 5.55567 17.6667 5.2381 17.855 4.96966C18.048 4.72087 18.3096 4.53402 18.6075 4.43216L19.7004 4.07383C19.9211 3.99853 20.1228 3.87628 20.2917 3.71549C20.4525 3.54663 20.5747 3.34492 20.65 3.12424L21.0263 2.01341C21.1338 1.7357 21.304 1.49024 21.5279 1.29674C21.785 1.10703 22.0881 0.989496 22.4058 0.956326C22.744 0.95439 23.0748 1.05428 23.3554 1.24299C23.608 1.433 23.8058 1.68643 23.9288 1.97758L24.305 3.12424C24.3803 3.34492 24.5026 3.54663 24.6633 3.71549C24.83 3.87024 25.0246 3.99185 25.2367 4.07383L26.3654 4.45008C26.6525 4.56302 26.9055 4.74816 27.1 4.98758C27.2955 5.25237 27.4021 5.57223 27.4046 5.90133Z" fill="#FF00D9"/>
</svg>
