<svg width="26" height="26" viewBox="0 0 26 26" fill="none" xmlns="http://www.w3.org/2000/svg">
<path d="M11.8402 23.4997H10.2045C6.02203 23.4997 3.93136 23.4997 2.6317 22.1755C1.33203 20.8514 1.33203 18.7199 1.33203 14.458C1.33203 10.1962 1.33203 8.06472 2.6317 6.74055C3.93136 5.41638 6.02203 5.41638 10.2045 5.41638H14.6414C18.8239 5.41638 20.9157 5.41638 22.2154 6.74055C23.2152 7.75905 23.445 9.25588 23.4987 11.833" stroke="#FF00D9" stroke-width="1.5" stroke-linecap="round" stroke-linejoin="round"/>
<path d="M22.3515 22.3598L24.665 24.6663M17.665 5.41634L17.5484 5.05467C16.9709 3.25801 16.6827 2.35967 15.9955 1.84634C15.3072 1.33301 14.3949 1.33301 12.5667 1.33301H12.2599C10.434 1.33301 9.52054 1.33301 8.83337 1.84634C8.14504 2.35967 7.85687 3.25801 7.27937 5.05467L7.16504 5.41634M23.5602 19.4467C23.5694 18.9006 23.4698 18.3581 23.2671 17.8508C23.0645 17.3436 22.7629 16.8818 22.38 16.4924C21.997 16.1029 21.5404 15.7936 21.0366 15.5824C20.5329 15.3713 19.9922 15.2626 19.446 15.2626C18.8998 15.2626 18.359 15.3713 17.8553 15.5824C17.3516 15.7936 16.8949 16.1029 16.5119 16.4924C16.129 16.8818 15.8274 17.3436 15.6248 17.8508C15.4221 18.3581 15.3225 18.9006 15.3317 19.4467C15.3499 20.5258 15.7913 21.5547 16.5609 22.3114C17.3305 23.0682 18.3666 23.4922 19.446 23.4922C20.5253 23.4922 21.5614 23.0682 22.331 22.3114C23.1006 21.5547 23.542 20.5258 23.5602 19.4467Z" stroke="#FF00D9" stroke-width="1.5" stroke-linecap="round" stroke-linejoin="round"/>
</svg>
