<svg width="27" height="36" viewBox="0 0 27 36" fill="none" xmlns="http://www.w3.org/2000/svg">
<path d="M13.5 0C11.7098 0 9.9929 0.750233 8.72703 2.08566C7.46116 3.42108 6.75 5.2323 6.75 7.12088C6.75 9.00945 7.46116 10.8207 8.72703 12.1561C9.9929 13.4915 11.7098 14.2418 13.5 14.2418C15.2902 14.2418 17.0071 13.4915 18.273 12.1561C19.5388 10.8207 20.25 9.00945 20.25 7.12088C20.25 5.2323 19.5388 3.42108 18.273 2.08566C17.0071 0.750233 15.2902 0 13.5 0ZM21.9375 17.8022H5.0625C3.71984 17.8022 2.43217 18.3649 1.48277 19.3664C0.533369 20.368 0 21.7264 0 23.1429C0 27.1163 1.54912 30.2993 4.0905 32.4534C6.59137 34.5719 9.94613 35.6044 13.5 35.6044C17.0539 35.6044 20.4086 34.5719 22.9095 32.4534C25.4475 30.2993 27 27.1163 27 23.1429C27 21.7264 26.4666 20.368 25.5172 19.3664C24.5678 18.3649 23.2802 17.8022 21.9375 17.8022Z" fill="#FF00D9"/>
</svg>
