<svg width="44" height="44" viewBox="0 0 44 44" fill="none" xmlns="http://www.w3.org/2000/svg">
<path d="M21.9998 40.3333C11.8743 40.3333 3.6665 32.1255 3.6665 22C3.6665 11.8745 11.8743 3.66663 21.9998 3.66663C32.1253 3.66663 40.3332 11.8745 40.3332 22C40.3332 32.1255 32.1253 40.3333 21.9998 40.3333ZM12.8332 22C12.8332 24.4311 13.7989 26.7627 15.518 28.4818C17.2371 30.2009 19.5687 31.1666 21.9998 31.1666C24.431 31.1666 26.7626 30.2009 28.4816 28.4818C30.2007 26.7627 31.1665 24.4311 31.1665 22H27.4998C27.4998 23.4587 26.9204 24.8576 25.8889 25.889C24.8575 26.9205 23.4585 27.5 21.9998 27.5C20.5411 27.5 19.1422 26.9205 18.1107 25.889C17.0793 24.8576 16.4998 23.4587 16.4998 22H12.8332Z" fill="black"/>
</svg>
