<svg width="56" height="56" viewBox="0 0 56 56" fill="none" xmlns="http://www.w3.org/2000/svg">
<circle cx="28" cy="28" r="28" fill="#FF00D9"/>
<path d="M28.5 12.25C29.1099 12.25 29.7112 12.283 30.3037 12.3491C30.5159 12.3726 30.7213 12.4376 30.9083 12.5405C31.0953 12.6433 31.2602 12.782 31.3936 12.9486C31.5269 13.1152 31.6262 13.3064 31.6857 13.5114C31.7452 13.7163 31.7637 13.931 31.7403 14.1431C31.7168 14.3552 31.6518 14.5607 31.5489 14.7476C31.446 14.9346 31.3073 15.0995 31.1408 15.2329C30.9742 15.3663 30.7829 15.4656 30.578 15.5251C30.373 15.5846 30.1584 15.6031 29.9463 15.5796C27.2683 15.28 24.5635 15.82 22.2058 17.1249C19.8482 18.4297 17.9543 20.435 16.7861 22.8632C15.6179 25.2914 15.2332 28.0227 15.6851 30.6792C16.137 33.3356 17.4032 35.786 19.3086 37.6914C21.214 39.5968 23.6644 40.863 26.3208 41.3149C28.9773 41.7668 31.7086 41.3821 34.1368 40.2139C36.565 39.0457 38.5703 37.1518 39.8751 34.7942C41.18 32.4365 41.72 29.7317 41.4204 27.0537C41.3969 26.8416 41.4154 26.627 41.4749 26.422C41.5344 26.2171 41.6337 26.0258 41.7671 25.8592C42.0365 25.5228 42.4285 25.3072 42.8569 25.2597C43.2853 25.2123 43.7149 25.3371 44.0514 25.6065C44.218 25.7398 44.3567 25.9047 44.4595 26.0917C44.5624 26.2787 44.6274 26.4841 44.6509 26.6963C44.7159 27.2888 44.7489 27.8901 44.75 28.5C44.75 37.4749 37.4749 44.75 28.5 44.75C19.5251 44.75 12.25 37.4749 12.25 28.5C12.25 19.5251 19.5251 12.25 28.5 12.25ZM28.448 21.8001C28.5551 22.2173 28.4922 22.6599 28.2731 23.0307C28.054 23.4016 27.6967 23.6702 27.2796 23.7778C26.1338 24.0779 25.1363 24.7847 24.4733 25.7663C23.8103 26.7478 23.5271 27.9371 23.6765 29.1121C23.8259 30.2872 24.3978 31.3677 25.2853 32.1521C26.1729 32.9365 27.3155 33.3712 28.5 33.375C29.5811 33.3755 30.6317 33.0165 31.4866 32.3547C32.3414 31.6928 32.952 30.7655 33.2222 29.7188C33.3374 29.3098 33.6082 28.9623 33.9765 28.7505C34.3448 28.5388 34.7814 28.4797 35.1927 28.586C35.6041 28.6922 35.9575 28.9553 36.1772 29.3189C36.3969 29.6825 36.4655 30.1177 36.3682 30.5312C35.8697 32.4421 34.6926 34.1062 33.0568 35.2125C31.4209 36.3188 29.4382 36.7918 27.4791 36.5429C25.52 36.2941 23.7185 35.3406 22.4111 33.8604C21.1038 32.3803 20.38 30.4748 20.375 28.5C20.3747 26.6985 20.9732 24.948 22.0762 23.5237C23.1793 22.0994 24.7245 21.0821 26.4688 20.6318C26.6754 20.5785 26.8906 20.5664 27.1019 20.5963C27.3132 20.6262 27.5166 20.6975 27.7004 20.806C27.8842 20.9144 28.0448 21.0581 28.1731 21.2287C28.3014 21.3993 28.3948 21.5934 28.448 21.8001ZM39.069 12.4564C39.3656 12.5794 39.6191 12.7874 39.7976 13.0544C39.976 13.3213 40.0714 13.6352 40.0716 13.9562V16.93H43.0438C43.3651 16.9301 43.6792 17.0254 43.9464 17.204C44.2135 17.3825 44.4218 17.6363 44.5447 17.9332C44.6677 18.2301 44.6999 18.5568 44.6372 18.8719C44.5745 19.1871 44.4198 19.4766 44.1926 19.7039L38.445 25.445C38.1403 25.7498 37.7271 25.921 37.2961 25.9211H33.375L30.4045 28.8932C30.0996 29.1982 29.686 29.3695 29.2548 29.3695C28.8236 29.3695 28.41 29.1982 28.1051 28.8932C27.8002 28.5883 27.6289 28.1748 27.6289 27.7436C27.6289 27.3123 27.8002 26.8988 28.1051 26.5939L31.0773 23.625V19.7023C31.0773 19.2713 31.2486 18.8581 31.5534 18.5534L37.2977 12.8074C37.525 12.58 37.8146 12.4251 38.1299 12.3623C38.4452 12.2996 38.772 12.3317 39.069 12.4547M36.8216 17.8774L34.3273 20.375V22.6727H36.625L39.121 20.1784H38.4466C38.0156 20.1784 37.6023 20.0072 37.2976 19.7024C36.9928 19.3977 36.8216 18.9844 36.8216 18.5534V17.8774Z" fill="#F5F5F5"/>
</svg>
