<svg width="61" height="71" viewBox="0 0 61 71" fill="none" xmlns="http://www.w3.org/2000/svg">
<g filter="url(#filter0_dddd_812_156)">
<path d="M19.0446 10.2644C19.1946 10.5829 19.4538 10.8293 19.765 10.9494C20.0762 11.0694 20.414 11.0534 20.704 10.9047C22.8177 9.82062 25.2108 9.45695 27.5743 9.86066C29.9378 10.2644 32.1634 11.4169 33.9637 13.1696C35.7641 14.9223 37.0566 17.1947 37.6746 19.6934C38.2925 22.1922 38.2074 24.8027 37.4303 27.188L36.9015 25.5727C36.7972 25.2528 36.5858 24.9824 36.3098 24.8158C36.0338 24.6492 35.7136 24.5988 35.4136 24.6747C35.1136 24.7507 34.8561 24.9473 34.6928 25.225C34.5295 25.5028 34.4726 25.8411 34.5334 26.172L34.5827 26.3634L36.1449 31.1353C36.244 31.4384 36.4396 31.6974 36.696 31.8654C36.9523 32.0334 37.2525 32.0991 37.5419 32.0506L37.7179 32.0053L42.0916 30.5164C42.3831 30.4157 42.6241 30.1989 42.7666 29.9091C42.9091 29.6192 42.9425 29.2777 42.8602 28.9528C42.7779 28.6278 42.5859 28.3432 42.3226 28.1558C42.0593 27.9685 41.744 27.8921 41.4396 27.9419L41.2644 27.9857L39.6242 28.544C40.6468 25.6646 40.8212 22.4834 40.1244 19.4201C39.4276 16.3568 37.8924 13.5553 35.7211 11.3851C33.5499 9.2148 30.8447 7.77777 27.9623 7.26351C25.0799 6.74925 22.1558 7.18192 19.5756 8.50444C19.2854 8.65288 19.0667 8.92175 18.9674 9.25193C18.8681 9.58212 18.8964 9.94659 19.0461 10.2652M9.51995 16.1733C9.62991 16.5086 9.85734 16.7885 10.1523 16.9516C10.4472 17.1148 10.7856 17.1477 11.093 17.0433L12.7331 16.485C11.7258 19.3174 11.5392 22.4435 12.1969 25.4634C12.8547 28.4833 14.3271 31.2599 16.4258 33.438C18.5245 35.6162 21.1541 37.097 23.9785 37.6911C26.8028 38.2852 29.6936 37.9656 32.2811 36.7732C32.4276 36.7058 32.5592 36.6075 32.6683 36.4838C32.7775 36.36 32.862 36.2134 32.9171 36.0522C32.9722 35.8909 32.9968 35.7183 32.9895 35.5442C32.9822 35.37 32.9431 35.1977 32.8745 35.0371C32.8059 34.8765 32.7091 34.7307 32.5896 34.6081C32.4702 34.4855 32.3304 34.3885 32.1782 34.3226C32.0261 34.2567 31.8646 34.2232 31.7029 34.224C31.5413 34.2248 31.3826 34.2599 31.2361 34.3273C29.1173 35.3034 26.7526 35.5735 24.4375 35.104C22.1225 34.6344 19.9597 33.4459 18.2195 31.6871C16.4793 29.9282 15.2389 27.677 14.6532 25.2147C14.0675 22.7524 14.1625 20.1882 14.9263 17.8426L15.4558 19.4563C15.5082 19.6252 15.5909 19.7825 15.6992 19.9191C15.8074 20.0556 15.9389 20.1687 16.0861 20.2518C16.2333 20.3348 16.3932 20.386 16.5565 20.4026C16.7198 20.4191 16.8832 20.4006 17.0372 20.3481C17.1912 20.2956 17.3326 20.2102 17.4533 20.0968C17.574 19.9834 17.6715 19.8443 17.7402 19.6877C17.8088 19.5311 17.8472 19.3601 17.8531 19.1846C17.859 19.0091 17.8324 18.8327 17.7746 18.6656L16.2125 13.8937C16.1025 13.5584 15.8751 13.2785 15.5801 13.1154C15.2852 12.9522 14.9469 12.9193 14.6395 13.0237L10.2657 14.5126C9.95846 14.6175 9.7074 14.8511 9.5677 15.1622C9.42799 15.4733 9.41107 15.8364 9.52065 16.1718" fill="black"/>
<path d="M48.0411 38.4203C49.4735 37.4429 49.7793 35.5777 48.7251 34.2496C47.6709 32.9215 45.659 32.638 44.2266 33.6154L34.5939 40.196H24.8888C24.1806 40.196 23.6012 39.6588 23.6012 39.0023C23.6012 38.3457 24.1806 37.8085 24.8888 37.8085H31.3267C32.7511 37.8085 33.9019 36.7416 33.9019 35.421C33.9019 34.1004 32.7511 33.0334 31.3267 33.0334H18.5877C16.246 33.0334 13.9766 33.7721 12.1498 35.1225L8.53658 37.8085H5.57515C4.15077 37.8085 3 38.8754 3 40.196V44.9711C3 46.2917 4.15077 47.3586 5.57515 47.3586H31.3669C33.7007 47.3586 35.9781 46.6647 37.8612 45.3814L48.0491 38.4203H48.0411Z" fill="black"/>
<path d="M26 14C29.8661 14 33 17.3578 33 21.5C33 25.6423 29.8661 29 26 29C22.1339 29 19 25.6423 19 21.5C19 17.3578 22.1339 14 26 14ZM26 17C25.8143 17 25.6363 17.079 25.505 17.2197C25.3737 17.3603 25.3 17.5511 25.3 17.75V21.5C25.3 21.6989 25.3738 21.8896 25.5051 22.0302L27.6051 24.2802C27.7371 24.4169 27.9139 24.4925 28.0975 24.4908C28.281 24.489 28.4566 24.4102 28.5864 24.2711C28.7162 24.1321 28.7898 23.9439 28.7914 23.7473C28.793 23.5507 28.7224 23.3612 28.5949 23.2198L26.7 21.1895V17.75C26.7 17.5511 26.6262 17.3603 26.495 17.2197C26.3637 17.079 26.1857 17 26 17Z" fill="black"/>
</g>
<defs>
<filter id="filter0_dddd_812_156" x="0" y="-1" width="60.3521" height="76" filterUnits="userSpaceOnUse" color-interpolation-filters="sRGB">
<feFlood flood-opacity="0" result="BackgroundImageFix"/>
<feColorMatrix in="SourceAlpha" type="matrix" values="0 0 0 0 0 0 0 0 0 0 0 0 0 0 0 0 0 0 127 0" result="hardAlpha"/>
<feOffset dy="1"/>
<feGaussianBlur stdDeviation="1"/>
<feColorMatrix type="matrix" values="0 0 0 0 0 0 0 0 0 0 0 0 0 0 0 0 0 0 0.1 0"/>
<feBlend mode="normal" in2="BackgroundImageFix" result="effect1_dropShadow_812_156"/>
<feColorMatrix in="SourceAlpha" type="matrix" values="0 0 0 0 0 0 0 0 0 0 0 0 0 0 0 0 0 0 127 0" result="hardAlpha"/>
<feOffset dx="1" dy="4"/>
<feGaussianBlur stdDeviation="2"/>
<feColorMatrix type="matrix" values="0 0 0 0 0 0 0 0 0 0 0 0 0 0 0 0 0 0 0.09 0"/>
<feBlend mode="normal" in2="effect1_dropShadow_812_156" result="effect2_dropShadow_812_156"/>
<feColorMatrix in="SourceAlpha" type="matrix" values="0 0 0 0 0 0 0 0 0 0 0 0 0 0 0 0 0 0 127 0" result="hardAlpha"/>
<feOffset dx="3" dy="9"/>
<feGaussianBlur stdDeviation="3"/>
<feColorMatrix type="matrix" values="0 0 0 0 0 0 0 0 0 0 0 0 0 0 0 0 0 0 0.05 0"/>
<feBlend mode="normal" in2="effect2_dropShadow_812_156" result="effect3_dropShadow_812_156"/>
<feColorMatrix in="SourceAlpha" type="matrix" values="0 0 0 0 0 0 0 0 0 0 0 0 0 0 0 0 0 0 127 0" result="hardAlpha"/>
<feOffset dx="4" dy="16"/>
<feGaussianBlur stdDeviation="3.5"/>
<feColorMatrix type="matrix" values="0 0 0 0 0 0 0 0 0 0 0 0 0 0 0 0 0 0 0.01 0"/>
<feBlend mode="normal" in2="effect3_dropShadow_812_156" result="effect4_dropShadow_812_156"/>
<feBlend mode="normal" in="SourceGraphic" in2="effect4_dropShadow_812_156" result="shape"/>
</filter>
</defs>
</svg>
