<svg width="56" height="56" viewBox="0 0 56 56" fill="none" xmlns="http://www.w3.org/2000/svg">
<circle cx="28" cy="28" r="28" fill="#FF00D9"/>
<path d="M24.1875 18.6142C25.4606 18.2028 26.7891 17.9956 28.125 18.0001C33.6138 18.0001 37.3492 21.338 39.5765 24.2807C40.6921 25.7574 41.2499 26.493 41.2499 28.6814C41.2499 30.871 40.6921 31.6067 39.5765 33.082C37.3492 36.0247 33.6138 39.3626 28.125 39.3626C22.6361 39.3626 18.9007 36.0247 16.6734 33.082C15.5578 31.608 15 30.8697 15 28.6814C15 26.4917 15.5578 25.756 16.6734 24.2807C17.354 23.3765 18.1116 22.5352 18.9375 21.7666" stroke="#F5F5F5" stroke-width="3" stroke-linecap="round"/>
<path d="M32.0625 28.6814C32.0625 29.7437 31.6476 30.7625 30.9092 31.5137C30.1708 32.2649 29.1693 32.6869 28.125 32.6869C27.0807 32.6869 26.0792 32.2649 25.3408 31.5137C24.6023 30.7625 24.1875 29.7437 24.1875 28.6814C24.1875 27.6191 24.6023 26.6003 25.3408 25.8491C26.0792 25.0979 27.0807 24.6759 28.125 24.6759C29.1693 24.6759 30.1708 25.0979 30.9092 25.8491C31.6476 26.6003 32.0625 27.6191 32.0625 28.6814Z" stroke="#F5F5F5" stroke-width="3"/>
</svg>
